<svg xmlns="http://www.w3.org/2000/svg" viewBox="0 0 300 300"><path d="M299,1V299H1V1H299m1-1H0V300H300V0Z" fill="#8e0000"/><path d="M151.35,43.75q22.1-5.91,33.14,3.83t11,34.3V184.11q0,24.55-11,40.22t-33.14,21.59l-46.89,12.56V56.31ZM134.1,221.66l16.71-4.48A19,19,0,0,0,162,209.57q3.9-5.67,3.91-16.07V88.37q0-10.4-3.91-14t-11.18-1.62L134.1,77.25Z" fill="#fff"/><polygon points="20 119.52 20 20.41 120 20.41 120 0 0 0 0 119.52 20 119.52" fill="#8e0000"/><polygon points="280 190 280 280 190 280 190 300 300 300 300 190 280 190" fill="#8e0000"/></svg>
