<svg xmlns="http://www.w3.org/2000/svg" xmlns:xlink="http://www.w3.org/1999/xlink" x="0px" y="0px"
	 viewBox="0 0 1000 500"><g opacity="0.5"><path d="M44.19,299l18.4-4.94q6.33-1.69,10.35.41A10,10,0,0,0,71,292Q66.7,288,58.7,290.16L40.29,295.1V454.49l3.9-1.05Z" fill="#8e0000"/><path d="M99.7,266.25c-.27-.24-.55-.45-.82-.67Q108,276.8,108,300.2V413.05q0,27.09-12.17,44.39T59.29,481.27L11.54,494.09v5l51.65-13.87q24.33-6.54,36.51-23.83T111.87,417V304.1Q111.87,277,99.7,266.25Z" fill="#8e0000"/><path d="M216.35,233c-.21-.19-.44-.36-.65-.54q9.51,11.53,9.52,34.65v116q0,26.77-12.76,44.87t-36.81,24.55q-23.46,6.29-36.16-4.26a29.63,29.63,0,0,0,3.24,3.38q12.77,11.24,36.81,4.78t36.81-24.55q12.77-18.07,12.76-44.86V271Q229.11,244.26,216.35,233Z" fill="#8e0000"/><path d="M165.23,420.31q-2.61-4.55-2.61-13.16V286.65q0-22,16.92-26.54,6.44-1.73,10.42.39-4-7-14.31-4.29-16.92,4.55-16.92,26.54v120.5Q158.73,416.87,165.23,420.31Z" fill="#8e0000"/><path d="M293.19,224.65q-16.92,4.54-16.92,26.54v120.5q0,13.37,6.44,16.76-2.54-4.47-2.54-12.86V255.09q0-22,16.92-26.54,6.44-1.73,10.42.39Q303.48,221.89,293.19,224.65Z" fill="#8e0000"/><path d="M328.52,397q-12.47,17.85-36.22,24.23-23,6.17-35.36-4.08a29.75,29.75,0,0,0,3,3.2q12.48,11.16,36.22,4.78t36.21-24.23q12.46-17.85,12.47-44.95V326.34l-3.9,1v24.7Q341,379.18,328.52,397Z" fill="#8e0000"/><path d="M332.41,201.69c-.27-.24-.56-.46-.85-.7Q341,212.51,341,236.05v21.67L314,265v4.94l30.87-8.28V240Q344.88,212.86,332.41,201.69Z" fill="#8e0000"/><path d="M456.75,321.32q0,27.1-12.47,44.95T408.07,390.5q-23,6.17-35.37-4.09a28.13,28.13,0,0,0,3.05,3.21q12.47,11.16,36.21,4.78t36.21-24.23q12.48-17.85,12.47-44.95V155.31l-3.89,1.05Z" fill="#8e0000"/><path d="M398.48,357.69q-2.55-4.47-2.55-12.86V172.69l-3.89,1v167.2Q392,354.29,398.48,357.69Z" fill="#8e0000"/><polygon points="553.22 248.52 523.57 138.42 520.92 139.13 553.22 259.08 553.22 248.52" fill="#8e0000"/><polygon points="508.1 360.77 482.61 367.61 482.61 372.56 511.99 364.67 511.99 213.58 508.1 199.15 508.1 360.77" fill="#8e0000"/><polygon points="582.31 340.85 551.42 349.14 552.66 353.75 586.2 344.75 586.2 121.6 582.31 122.65 582.31 340.85" fill="#8e0000"/><polygon points="638.41 325.79 609.65 333.51 609.65 338.45 642.3 329.69 642.3 106.54 638.41 107.59 638.41 325.79" fill="#8e0000"/><path d="M748.27,90.05c-.28-.25-.57-.47-.85-.71q9.42,11.52,9.42,35.06v21.67l-27,7.25v4.94L760.74,150V128.3Q760.74,101.21,748.27,90.05Z" fill="#8e0000"/><polygon points="715.02 212.77 715.02 217.72 725.97 214.78 725.97 209.83 715.02 212.77" fill="#8e0000"/><path d="M744.37,285.38q-12.47,17.85-36.21,24.23-23,6.17-35.37-4.08a29.84,29.84,0,0,0,3.05,3.2q12.46,11.16,36.21,4.78t36.22-24.23q12.47-17.85,12.47-44.94V173.57l-3.9,1v65.82Q756.84,267.53,744.37,285.38Z" fill="#8e0000"/><path d="M709.05,113q-16.92,4.55-16.92,26.54V260q0,13.36,6.44,16.76Q696,272.33,696,263.94V143.44q0-22,16.92-26.54c4.28-1.15,7.76-1,10.41.39Q719.33,110.24,709.05,113Z" fill="#8e0000"/><polygon points="814.46 151.01 814.46 60.32 810.57 61.37 810.57 152.05 814.46 151.01" fill="#8e0000"/><polygon points="810.57 183.93 810.57 279.56 781.81 287.28 781.81 292.23 814.46 283.46 814.46 187.83 847.67 178.91 847.67 173.97 810.57 183.93" fill="#8e0000"/><polygon points="880.92 260.68 851.57 268.56 851.57 273.5 884.81 264.58 884.81 41.43 880.92 42.48 880.92 260.68" fill="#8e0000"/><polygon points="899.06 64.54 899.06 69.49 929.3 61.37 929.3 56.42 899.06 64.54" fill="#8e0000"/><polygon points="996.09 11.56 996.09 38.49 961.95 47.65 961.95 238.92 933.19 246.64 933.19 251.59 965.85 242.82 965.85 51.55 999.98 42.39 999.98 10.51 996.09 11.56" fill="#8e0000"/></g><path d="M51.65,251.51Q76,245,88.16,255.73t12.17,37.86V406.44q0,27.09-12.17,44.39T51.65,474.66L0,488.52V265.38Zm-19,196.37,18.41-4.94a21,21,0,0,0,12.32-8.41q4.29-6.25,4.3-17.73v-116q0-11.47-4.3-15.42c-2.88-2.62-7-3.23-12.32-1.79l-18.41,4.94Z" fill="#141414"/><path d="M131.2,242.27Q144,224.18,168,217.72t36.8,4.78q12.76,11.25,12.77,38v116q0,26.79-12.77,44.87T168,446q-24,6.45-36.81-4.78t-12.76-38v-116Q118.44,260.35,131.2,242.27ZM168,414.09q16.92-4.54,16.92-26.54V267.05q0-22-16.92-17.45t-16.92,26.54v120.5Q151.09,418.63,168,414.09Z" fill="#141414"/><path d="M333.34,345.47q0,27.11-12.46,44.95t-36.22,24.23q-23.75,6.38-36.21-4.78T236,371.61v-116q0-27.09,12.47-45t36.21-24.23q23.74-6.37,36.22,4.78t12.46,38.26v21.67l-30.87,8.29V235.49q0-22-16.92-17.45t-16.92,26.54v120.5q0,21.68,16.92,17.13T302.47,356V324.11l30.87-8.28Z" fill="#141414"/><path d="M384.4,334.32q0,21.68,16.92,17.13t16.92-26.22V153.09l30.87-8.29V314.71q0,27.1-12.47,45t-36.22,24.23q-23.75,6.38-36.21-4.78t-12.47-38.26V170.94l32.66-8.76Z" fill="#141414"/><path d="M500.46,354.16l-29.39,7.89V138.91l41-11,33.55,124.56V118.9l29.09-7.81V334.24l-33.54,9-40.67-150.7Z" fill="#141414"/><path d="M630.77,96V319.18l-32.66,8.76V104.8Z" fill="#141414"/><path d="M749.2,163.05v70.77q0,27.1-12.47,44.95T700.52,303q-23.76,6.38-36.22-4.78T651.84,260v-116q0-27.09,12.46-44.95t36.22-24.23q23.75-6.37,36.21,4.78t12.47,38.26v21.67l-30.87,8.29V123.84q0-22-16.92-17.45t-16.92,26.54v120.5q0,21.68,16.92,17.13t16.92-26.22V203.22l-14.84,4V175.33Z" fill="#141414"/><path d="M770.28,281.72V58.57l32.65-8.76v95.63l37.1-10V39.85l33.25-8.93V254.07L840,263V167.36l-37.1,10V273Z" fill="#141414"/><path d="M988.45,0V31.88L954.31,41V232.31l-32.65,8.77V49.81L887.52,59V27.1Z" fill="#141414"/><polygon points="997.03 380.86 997.03 497 881.14 497 881.14 500 1000 500 1000 380.86 997.03 380.86" fill="#8e0000" opacity="0.5"/><polygon points="966.95 367.55 966.95 466.89 867.81 466.89 867.81 488.96 988.98 488.96 988.98 367.55 966.95 367.55" fill="#8e0000"/><polygon points="33.18 143.56 33.18 33.47 143.09 33.47 143.09 29.8 29.52 29.8 29.52 143.56 33.18 143.56" fill="#8e0000" opacity="0.5"/><polygon points="22.03 131.92 22.03 22.53 132.19 22.53 132.19 0 0 0 0 131.92 22.03 131.92" fill="#8e0000"/>
</svg>
