<svg xmlns="http://www.w3.org/2000/svg" xmlns:xlink="http://www.w3.org/1999/xlink" x="0px" y="0px"
	 viewBox="0 0 1000 600"><g opacity="0.5"><path d="M44.19,299l18.4-4.94q6.33-1.69,10.35.41A10,10,0,0,0,71,292Q66.7,288,58.7,290.16L40.29,295.1V454.49l3.9-1.05Z" fill="#8e0000"/><path d="M99.7,266.25c-.27-.24-.55-.45-.82-.67Q108,276.8,108,300.2V413.05q0,27.09-12.17,44.39T59.29,481.27L11.54,494.09v5l51.65-13.87q24.33-6.54,36.51-23.83T111.87,417V304.1Q111.87,277,99.7,266.25Z" fill="#8e0000"/><path d="M216.35,233c-.21-.19-.44-.36-.65-.54q9.51,11.53,9.52,34.65v116q0,26.77-12.76,44.87t-36.81,24.55q-23.46,6.29-36.16-4.26a29.63,29.63,0,0,0,3.24,3.38q12.77,11.24,36.81,4.78t36.81-24.55q12.77-18.07,12.76-44.86V271Q229.11,244.26,216.35,233Z" fill="#8e0000"/><path d="M165.23,420.31q-2.61-4.55-2.61-13.16V286.65q0-22,16.92-26.54,6.44-1.73,10.42.39-4-7-14.31-4.29-16.92,4.55-16.92,26.54v120.5Q158.73,416.87,165.23,420.31Z" fill="#8e0000"/><path d="M293.19,224.65q-16.92,4.54-16.92,26.54v120.5q0,13.37,6.44,16.76-2.54-4.47-2.54-12.86V255.09q0-22,16.92-26.54,6.44-1.73,10.42.39Q303.48,221.89,293.19,224.65Z" fill="#8e0000"/><path d="M328.52,397q-12.47,17.85-36.22,24.23-23,6.17-35.36-4.08a29.75,29.75,0,0,0,3,3.2q12.48,11.16,36.22,4.78t36.21-24.23q12.46-17.85,12.47-44.95V326.34l-3.9,1v24.7Q341,379.18,328.52,397Z" fill="#8e0000"/><path d="M332.41,201.69c-.27-.24-.56-.46-.85-.7Q341,212.51,341,236.05v21.67L314,265v4.94l30.87-8.28V240Q344.88,212.86,332.41,201.69Z" fill="#8e0000"/><path d="M456.75,321.32q0,27.1-12.47,44.95T408.07,390.5q-23,6.17-35.37-4.09a28.13,28.13,0,0,0,3.05,3.21q12.47,11.16,36.21,4.78t36.21-24.23q12.48-17.85,12.47-44.95V155.31l-3.89,1.05Z" fill="#8e0000"/><path d="M398.48,357.69q-2.55-4.47-2.55-12.86V172.69l-3.89,1v167.2Q392,354.29,398.48,357.69Z" fill="#8e0000"/><polygon points="553.22 248.52 523.57 138.42 520.92 139.13 553.22 259.08 553.22 248.52" fill="#8e0000"/><polygon points="508.1 360.77 482.61 367.61 482.61 372.56 511.99 364.67 511.99 213.58 508.1 199.15 508.1 360.77" fill="#8e0000"/><polygon points="582.31 340.85 551.42 349.14 552.66 353.75 586.2 344.75 586.2 121.6 582.31 122.65 582.31 340.85" fill="#8e0000"/><polygon points="638.41 325.79 609.65 333.51 609.65 338.45 642.3 329.69 642.3 106.54 638.41 107.59 638.41 325.79" fill="#8e0000"/><path d="M748.27,90.05c-.28-.25-.57-.47-.85-.71q9.42,11.52,9.42,35.06v21.67l-27,7.25v4.94L760.74,150V128.3Q760.74,101.21,748.27,90.05Z" fill="#8e0000"/><polygon points="715.02 212.77 715.02 217.72 725.97 214.78 725.97 209.83 715.02 212.77" fill="#8e0000"/><path d="M744.37,285.38q-12.47,17.85-36.21,24.23-23,6.17-35.37-4.08a29.84,29.84,0,0,0,3.05,3.2q12.46,11.16,36.21,4.78t36.22-24.23q12.47-17.85,12.47-44.94V173.57l-3.9,1v65.82Q756.84,267.53,744.37,285.38Z" fill="#8e0000"/><path d="M709.05,113q-16.92,4.55-16.92,26.54V260q0,13.36,6.44,16.76Q696,272.33,696,263.94V143.44q0-22,16.92-26.54c4.28-1.15,7.76-1,10.41.39Q719.33,110.24,709.05,113Z" fill="#8e0000"/><polygon points="814.46 151.01 814.46 60.32 810.57 61.37 810.57 152.05 814.46 151.01" fill="#8e0000"/><polygon points="810.57 183.93 810.57 279.56 781.81 287.28 781.81 292.23 814.46 283.46 814.46 187.83 847.67 178.91 847.67 173.97 810.57 183.93" fill="#8e0000"/><polygon points="880.92 260.68 851.57 268.56 851.57 273.5 884.81 264.58 884.81 41.43 880.92 42.48 880.92 260.68" fill="#8e0000"/><polygon points="899.06 64.54 899.06 69.49 929.3 61.37 929.3 56.42 899.06 64.54" fill="#8e0000"/><polygon points="996.09 11.56 996.09 38.49 961.95 47.65 961.95 238.92 933.19 246.64 933.19 251.59 965.85 242.82 965.85 51.55 999.98 42.39 999.98 10.51 996.09 11.56" fill="#8e0000"/></g><path d="M51.65,251.51Q76,245,88.16,255.73t12.17,37.86V406.44q0,27.09-12.17,44.39T51.65,474.66L0,488.52V265.38Zm-19,196.37,18.41-4.94a21,21,0,0,0,12.32-8.41q4.29-6.25,4.3-17.73v-116q0-11.47-4.3-15.42c-2.88-2.62-7-3.23-12.32-1.79l-18.41,4.94Z" fill="#ffffff"/><path d="M131.2,242.27Q144,224.18,168,217.72t36.8,4.78q12.76,11.25,12.77,38v116q0,26.79-12.77,44.87T168,446q-24,6.45-36.81-4.78t-12.76-38v-116Q118.44,260.35,131.2,242.27ZM168,414.09q16.92-4.54,16.92-26.54V267.05q0-22-16.92-17.45t-16.92,26.54v120.5Q151.09,418.63,168,414.09Z" fill="#ffffff"/><path d="M333.34,345.47q0,27.11-12.46,44.95t-36.22,24.23q-23.75,6.38-36.21-4.78T236,371.61v-116q0-27.09,12.47-45t36.21-24.23q23.74-6.37,36.22,4.78t12.46,38.26v21.67l-30.87,8.29V235.49q0-22-16.92-17.45t-16.92,26.54v120.5q0,21.68,16.92,17.13T302.47,356V324.11l30.87-8.28Z" fill="#ffffff"/><path d="M384.4,334.32q0,21.68,16.92,17.13t16.92-26.22V153.09l30.87-8.29V314.71q0,27.1-12.47,45t-36.22,24.23q-23.75,6.38-36.21-4.78t-12.47-38.26V170.94l32.66-8.76Z" fill="#ffffff"/><path d="M500.46,354.16l-29.39,7.89V138.91l41-11,33.55,124.56V118.9l29.09-7.81V334.24l-33.54,9-40.67-150.7Z" fill="#ffffff"/><path d="M630.77,96V319.18l-32.66,8.76V104.8Z" fill="#ffffff"/><path d="M749.2,163.05v70.77q0,27.1-12.47,44.95T700.52,303q-23.76,6.38-36.22-4.78T651.84,260v-116q0-27.09,12.46-44.95t36.22-24.23q23.75-6.37,36.21,4.78t12.47,38.26v21.67l-30.87,8.29V123.84q0-22-16.92-17.45t-16.92,26.54v120.5q0,21.68,16.92,17.13t16.92-26.22V203.22l-14.84,4V175.33Z" fill="#ffffff"/><path d="M770.28,281.72V58.57l32.65-8.76v95.63l37.1-10V39.85l33.25-8.93V254.07L840,263V167.36l-37.1,10V273Z" fill="#ffffff"/><path d="M988.45,0V31.88L954.31,41V232.31l-32.65,8.77V49.81L887.52,59V27.1Z" fill="#ffffff"/><polygon points="997.03 380.86 997.03 497 881.14 497 881.14 500 1000 500 1000 380.86 997.03 380.86" fill="#8e0000" opacity="0.5"/><polygon points="966.95 367.55 966.95 466.89 867.81 466.89 867.81 488.96 988.98 488.96 988.98 367.55 966.95 367.55" fill="#8e0000"/><polygon points="33.18 143.56 33.18 33.47 143.09 33.47 143.09 29.8 29.52 29.8 29.52 143.56 33.18 143.56" fill="#8e0000" opacity="0.5"/><polygon points="22.03 131.92 22.03 22.53 132.19 22.53 132.19 0 0 0 0 131.92 22.03 131.92" fill="#8e0000"/><path d="M0,551.11H11.2v48.34H0Z" fill="#ffffff"/><path d="M64.27,567.15q0,11.63-9.55,15l12.71,17.29H53.64L42.51,584H34.76v15.43H23.55V551.11h19q11.7,0,16.69,3.8T64.27,567.15Zm-13.5,5.74q2.08-1.8,2.08-5.7c0-2.61-.71-4.4-2.15-5.36s-4-1.46-7.54-1.46h-8.4v14.32h8.18Q48.69,574.69,50.77,572.89Z" fill="#ffffff"/><path d="M111.53,599.45,106.86,589h-21l-4.67,10.45H69.23l21.69-48.34h10.84l21.69,48.34Zm-15.16-34-6.32,14h12.57Z" fill="#ffffff"/><path d="M164.38,551.11h11.2v48.34h-11.2l-23.91-30.29v30.29H129.26V551.11h10.49l24.63,31.12Z" fill="#ffffff"/><path d="M225.42,581.88l12.79-30.77h12.13l-20.18,48.34h-9.48L200.5,551.11h12.14Z" fill="#ffffff"/><path d="M256.3,551.11h11.2v48.34H256.3Z" fill="#ffffff"/><path d="M315.62,599.45,311,589h-21l-4.67,10.45H273.32L295,551.11h10.84l21.69,48.34Zm-15.15-34-6.32,14h12.56Z" fill="#ffffff"/><path d="M390.66,557.43q7.18,6.33,7.18,17.6t-7,17.85q-7,6.57-21.36,6.57H352.31V551.11h17.74Q383.49,551.11,390.66,557.43Zm-8.22,28.74q4.13-3.74,4.13-10.86t-4.13-11q-4.12-3.84-12.67-3.84h-6.25V589.9h7.11Q378.31,589.9,382.44,586.17Z" fill="#ffffff"/><path d="M449.77,592.77a28.12,28.12,0,0,1-37.49,0,24.63,24.63,0,0,1,0-35.61,28.12,28.12,0,0,1,37.49,0,24.63,24.63,0,0,1,0,35.61ZM446,575a15.5,15.5,0,0,0-4.31-11,14.58,14.58,0,0,0-21.18,0,16.23,16.23,0,0,0,0,22,14.64,14.64,0,0,0,21.18,0A15.39,15.39,0,0,0,446,575Z" fill="#ffffff"/><path d="M489.91,589.9a16.74,16.74,0,0,0,13.5-6.29l7.18,7.12Q502,600,490.45,600t-19.1-7a23.39,23.39,0,0,1-7.51-17.81,23.63,23.63,0,0,1,7.65-17.95A26.31,26.31,0,0,1,490.2,550a27,27,0,0,1,20.68,9.06l-7,7.61a16.54,16.54,0,0,0-13.21-6.37,15.75,15.75,0,0,0-10.81,4A13.6,13.6,0,0,0,475.4,575a14.23,14.23,0,0,0,14.51,14.9Z" fill="#ffffff"/><path d="M532.71,587a10.11,10.11,0,0,0,15,0c1.84-2.23,2.76-5.29,2.76-9.16V551.11h11.2v27q0,10.51-6,16.15t-15.44,5.63q-9.4,0-15.48-5.67t-6.06-16.11v-27h11.2V577.8C529.91,581.67,530.84,584.73,532.71,587Z" fill="#ffffff"/><path d="M618.31,569l-13.57,26.42h-6.68L584.56,569v30.43h-11.2V551.11h15.15l12.93,26.55,13-26.55h15.09v48.34H618.31Z" fill="#ffffff"/><path d="M678.06,551.11v9.61h-25v10h22.48v9.2H653.07v10h25.78v9.55h-37V551.11Z" fill="#ffffff"/><path d="M724,551.11h11.2v48.34H724L700,569.16v30.29H688.83V551.11h10.49L724,582.23Z" fill="#ffffff"/><path d="M768.76,560.44v39h-11.2v-39H743.34v-9.33H783v9.33Z" fill="#ffffff"/><path d="M823.27,599.45,818.6,589h-21l-4.67,10.45H781l21.69-48.34H813.5l21.69,48.34Zm-15.15-34-6.32,14h12.56Z" fill="#ffffff"/><path d="M881.72,567.15q0,11.63-9.55,15l12.71,17.29H871.1L860,584h-7.76v15.43H841V551.11h19q11.7,0,16.69,3.8T881.72,567.15Zm-13.5,5.74q2.09-1.8,2.09-5.7t-2.16-5.36c-1.43-1-3.95-1.46-7.54-1.46h-8.4v14.32h8.19C864.23,574.69,866.83,574.09,868.22,572.89Z" fill="#ffffff"/><path d="M893.21,551.11h11.21v48.34H893.21Z" fill="#ffffff"/><path d="M953,551.11v9.61H928v10h22.48v9.2H928v10h25.78v9.55h-37V551.11Z" fill="#ffffff"/><path d="M975.48,560.75a4.12,4.12,0,0,0-1.62,3.39,3.82,3.82,0,0,0,2,3.36q2,1.25,9.12,2.94t11.1,5.08q3.94,3.39,4,9.89A12.86,12.86,0,0,1,994.94,596q-5.07,4-13.32,4-11.93,0-21.48-8.51l6.68-7.88q8.11,6.84,15,6.85a8.14,8.14,0,0,0,4.85-1.28,4.08,4.08,0,0,0,1.76-3.46,4,4,0,0,0-1.87-3.46c-1.24-.85-3.71-1.72-7.4-2.59q-8.76-2-12.82-5.22t-4.05-10.1a12.35,12.35,0,0,1,5.13-10.62q5.13-3.74,12.82-3.73a31.78,31.78,0,0,1,10,1.66,27.22,27.22,0,0,1,8.77,4.7l-5.68,7.89a22.55,22.55,0,0,0-13.5-4.78A6.91,6.91,0,0,0,975.48,560.75Z" fill="#ffffff"/>
</svg>
